<svg viewBox="0 0 119 54" xmlns="http://www.w3.org/2000/svg">
    <path
        d="M9.452 14.791C12.7739 9.60296 17.522 5.80059 23.0975 3.73368C25.5962 2.80832 27.1135 6.2399 24.5719 7.10515C19.6074 8.87913 15.5047 12.1824 12.5602 16.7811C9.62303 21.3683 8.33228 26.4884 8.79344 31.6712C9.05128 34.2963 5.34032 34.4943 5.09869 31.7166C4.66356 25.8825 6.13753 19.9674 9.452 14.791ZM16.2461 19.1412C18.7172 15.282 22.2651 12.4381 26.3595 10.9542C29.093 9.96741 30.3805 13.5288 27.8948 14.3322C24.4115 15.5231 21.448 17.8614 19.3543 21.1314C17.2606 24.4013 16.3769 28.0714 16.7602 31.7218C17.0634 34.3271 13.2974 34.6365 13.0424 31.7525C12.6767 27.4128 13.7751 23.0005 16.2461 19.1412ZM23.0287 23.4841C24.6045 21.0229 26.9499 19.2174 29.6843 18.2801C32.1575 17.4199 33.452 20.7415 31.1923 21.6243C28.6673 22.5654 27.2984 23.6602 26.1369 25.4742C24.9753 27.2883 24.5538 28.9898 24.7557 31.6768C24.8995 34.0986 21.3484 34.3012 21.0947 31.695C20.7944 28.8309 21.4528 25.9452 23.0287 23.4841Z"
        fill="currentColor" />
    <path
        d="M106.443 44.5565C105.011 44.5565 103.657 44.2961 102.381 43.7753C101.131 43.2284 100.011 42.4862 99.0215 41.5487C98.032 40.6112 97.2637 39.5175 96.7169 38.2675C96.17 36.9914 95.8965 35.6242 95.8965 34.1659C95.8965 32.7076 96.17 31.3534 96.7169 30.1034C97.2637 28.8274 98.032 27.7206 99.0215 26.7831C100.011 25.8196 101.131 25.0774 102.381 24.5565C103.657 24.0097 105.011 23.7362 106.443 23.7362C107.876 23.7362 109.23 24.0097 110.506 24.5565C111.782 25.0774 112.902 25.8196 113.865 26.7831C114.855 27.7206 115.623 28.8274 116.17 30.1034C116.743 31.3534 117.029 32.7076 117.029 34.1659C117.029 35.6242 116.743 36.9914 116.17 38.2675C115.623 39.5175 114.855 40.6112 113.865 41.5487C112.902 42.4862 111.782 43.2284 110.506 43.7753C109.23 44.2961 107.876 44.5565 106.443 44.5565ZM106.443 39.7518C107.407 39.7518 108.279 39.5435 109.061 39.1268C109.868 38.6841 110.519 38.0461 111.014 37.2128C111.509 36.3534 111.756 35.3378 111.756 34.1659C111.756 32.942 111.509 31.9133 111.014 31.08C110.519 30.2466 109.868 29.6216 109.061 29.205C108.279 28.7623 107.407 28.5409 106.443 28.5409C105.532 28.5409 104.66 28.7623 103.826 29.205C103.019 29.6216 102.368 30.2466 101.873 31.08C101.404 31.9133 101.17 32.942 101.17 34.1659C101.17 35.3378 101.404 36.3534 101.873 37.2128C102.368 38.0461 103.019 38.6841 103.826 39.1268C104.66 39.5435 105.532 39.7518 106.443 39.7518Z"
        fill="currentColor" />
    <path
        d="M86.5997 43.9706L86.5606 32.5253C86.5606 31.1972 86.2351 30.2076 85.584 29.5565C84.959 28.9055 84.0866 28.58 82.9669 28.58C82.0814 28.58 81.2611 28.8664 80.5059 29.4393C79.7507 30.0123 79.0866 30.6893 78.5137 31.4706V27.0565C78.9304 26.5097 79.4252 25.9888 79.9981 25.494C80.5971 24.9732 81.2741 24.5565 82.0294 24.244C82.7846 23.9055 83.6049 23.7362 84.4903 23.7362C85.8445 23.7362 87.0554 24.0357 88.1231 24.6347C89.1908 25.2336 90.0241 26.1451 90.6231 27.369C91.2481 28.567 91.5606 30.0643 91.5606 31.8612V43.9706H86.5997ZM73.5528 43.9706V15.8456H78.5137V43.9706H73.5528Z"
        fill="currentColor" />
    <path
        d="M63.3184 44.5565C61.834 44.5565 60.4538 44.2831 59.1778 43.7362C57.9278 43.1893 56.834 42.4341 55.8965 41.4706C54.959 40.5071 54.2299 39.4003 53.709 38.1503C53.2143 36.9003 52.9669 35.5852 52.9669 34.205C52.9669 32.8248 53.2143 31.5097 53.709 30.2597C54.2299 29.0097 54.959 27.9029 55.8965 26.9393C56.834 25.9498 57.9278 25.1685 59.1778 24.5956C60.4538 24.0227 61.834 23.7362 63.3184 23.7362C64.8028 23.7362 66.0007 23.9706 66.9122 24.4393C67.8497 24.9081 68.5919 25.3638 69.1387 25.8065V30.3768C68.4616 29.8821 67.6934 29.4654 66.834 29.1268C66.0007 28.7883 64.9721 28.619 63.7481 28.619C62.7585 28.619 61.834 28.8664 60.9747 29.3612C60.1413 29.856 59.4773 30.5201 58.9825 31.3534C58.4877 32.1867 58.2403 33.1373 58.2403 34.205C58.2403 35.2727 58.4747 36.2232 58.9434 37.0565C59.4122 37.8899 60.0632 38.5539 60.8965 39.0487C61.7559 39.5175 62.7064 39.7518 63.7481 39.7518C64.9721 39.7518 66.0007 39.5826 66.834 39.244C67.6934 38.9055 68.4616 38.5018 69.1387 38.0331V42.5643C68.5919 43.0331 67.8497 43.4888 66.9122 43.9315C66.0007 44.3482 64.8028 44.5565 63.3184 44.5565Z"
        fill="currentColor" />
    <path
        d="M41.0919 44.5565C39.6335 44.5565 38.2663 44.3091 36.9903 43.8143C35.7143 43.2935 34.5814 42.5774 33.5919 41.6659C32.6283 40.7544 31.8731 39.6737 31.3262 38.4237C30.7794 37.1737 30.5059 35.8065 30.5059 34.3222C30.5059 32.3951 30.9356 30.6373 31.795 29.0487C32.6544 27.4341 33.8393 26.1451 35.3497 25.1815C36.8601 24.218 38.5788 23.7362 40.5059 23.7362C42.433 23.7362 44.0866 24.1529 45.4669 24.9862C46.8731 25.8196 47.9408 26.9784 48.67 28.4628C49.4252 29.9211 49.8028 31.6138 49.8028 33.5409V35.6503H35.0762V32.2518H45.0372C44.9851 31.2883 44.7247 30.5071 44.2559 29.9081C43.7872 29.2831 43.2143 28.8274 42.5372 28.5409C41.8601 28.2284 41.1439 28.0722 40.3887 28.0722C39.3731 28.0722 38.4877 28.3326 37.7325 28.8534C37.0033 29.3742 36.4304 30.1034 36.0137 31.0409C35.5971 31.9784 35.3887 33.0722 35.3887 34.3222C35.3887 35.442 35.6361 36.4315 36.1309 37.2909C36.6257 38.1503 37.3158 38.8274 38.2012 39.3222C39.1127 39.8169 40.1413 40.0643 41.2872 40.0643C42.7455 40.0643 44.0476 39.7779 45.1934 39.205C46.3653 38.6321 47.2898 38.0461 47.9669 37.4472V42.0565C47.5762 42.4211 47.0294 42.7987 46.3262 43.1893C45.6231 43.58 44.8158 43.9055 43.9044 44.1659C43.0189 44.4263 42.0814 44.5565 41.0919 44.5565Z"
        fill="currentColor" />
</svg>
    